<svg width="600" height="600" xmlns="http://www.w3.org/2000/svg">
    <!-- Record Layout -->
    <rect x="50" y="20" width="330" height="560" fill="none" stroke="black" stroke-width="2"/>
    
    <!-- Header -->
    <text x="140" y="40" font-size="18" font-weight="bold" text-anchor="middle">Record Batch</text>
    
    <!-- Fields -->
    <!-- Field names -->
    <text x="80" y="80" font-size="14">baseOffset</text>
    <text x="80" y="120" font-size="14">batchLength</text>
    <text x="80" y="160" font-size="14">partitionLeaderEpoch</text>
    <text x="80" y="200" font-size="14">magic</text>
    <text x="80" y="240" font-size="14">crc</text>
    <text x="80" y="280" font-size="14">attributes</text>
    <text x="80" y="320" font-size="14">lastOffsetDelta</text>
    <text x="80" y="360" font-size="14">baseTimestamp</text>
    <text x="80" y="400" font-size="14">maxTimestamp</text>
    <text x="80" y="440" font-size="14">producerId</text>
    <text x="80" y="480" font-size="14">producerEpoch</text>
    <text x="80" y="520" font-size="14">baseSequence</text>
    <text x="80" y="560" font-size="14">records</text>
    
    <!-- Data types -->
    <text x="250" y="80" font-size="14">int64</text>
    <text x="250" y="120" font-size="14">int32</text>
    <text x="250" y="160" font-size="14">int32</text>
    <text x="250" y="200" font-size="14">int8</text>
    <text x="250" y="240" font-size="14">uint32</text>
    <text x="250" y="280" font-size="14">int16</text>
    <text x="250" y="320" font-size="14">int32</text>
    <text x="250" y="360" font-size="14">int64</text>
    <text x="250" y="400" font-size="14">int64</text>
    <text x="250" y="440" font-size="14">int64</text>
    <text x="250" y="480" font-size="14">int16</text>
    <text x="250" y="520" font-size="14">int32</text>
    <text x="250" y="560" font-size="14">[Record]</text>
    
    <!-- Connecting lines -->
    <line x1="80" y1="100" x2="350" y2="100" stroke="black" stroke-width="1"/>
    <line x1="80" y1="140" x2="350" y2="140" stroke="black" stroke-width="1"/>
    <line x1="80" y1="180" x2="350" y2="180" stroke="black" stroke-width="1"/>
    <line x1="80" y1="220" x2="350" y2="220" stroke="black" stroke-width="1"/>
    <line x1="80" y1="260" x2="350" y2="260" stroke="black" stroke-width="1"/>
    <line x1="80" y1="300" x2="350" y2="300" stroke="black" stroke-width="1"/>
    <line x1="80" y1="340" x2="350" y2="340" stroke="black" stroke-width="1"/>
    <line x1="80" y1="380" x2="350" y2="380" stroke="black" stroke-width="1"/>
    <line x1="80" y1="420" x2="350" y2="420" stroke="black" stroke-width="1"/>
    <line x1="80" y1="460" x2="350" y2="460" stroke="black" stroke-width="1"/>
    <line x1="80" y1="500" x2="350" y2="500" stroke="black" stroke-width="1"/>
    <line x1="80" y1="540" x2="350" y2="540" stroke="black" stroke-width="1"/>
    <line x1="80" y1="580" x2="350" y2="580" stroke="black" stroke-width="1"/>
</svg>
