<svg width="400" height="500" xmlns="http://www.w3.org/2000/svg">
    <!-- Record Layout -->
    <rect x="50" y="20" width="330" height="350" fill="none" stroke="black" stroke-width="2"/>
    
    <!-- Header -->
    <text x="140" y="50" font-size="18" font-weight="bold" text-anchor="middle">Record Layout</text>
    
    <!-- Fields -->
    <!-- Field names -->
    <text x="80" y="80" font-size="14">length</text>
    <text x="80" y="120" font-size="14">Attributes</text>
    <text x="80" y="160" font-size="14">timestampDelta</text>
    <text x="80" y="200" font-size="14">offsetDelta</text>
    <text x="80" y="240" font-size="14">keyLength</text>
    <text x="80" y="280" font-size="14">valueLen</text>
    <text x="80" y="320" font-size="14">Headers</text>
    
    <!-- Data types -->
    <text x="250" y="80" font-size="14">varint</text>
    <text x="250" y="120" font-size="14">int8</text>
    <text x="250" y="160" font-size="14">varlong</text>
    <text x="250" y="200" font-size="14">varint</text>
    <text x="250" y="240" font-size="14">varint</text>
    <text x="250" y="280" font-size="14">varint</text>
    <text x="250" y="320" font-size="14">[Header]</text>
    
    <!-- Connecting lines -->
    <line x1="80" y1="100" x2="350" y2="100" stroke="black" stroke-width="1"/>
    <line x1="80" y1="140" x2="350" y2="140" stroke="black" stroke-width="1"/>
    <line x1="80" y1="180" x2="350" y2="180" stroke="black" stroke-width="1"/>
    <line x1="80" y1="220" x2="350" y2="220" stroke="black" stroke-width="1"/>
    <line x1="80" y1="260" x2="350" y2="260" stroke="black" stroke-width="1"/>
    <line x1="80" y1="300" x2="350" y2="300" stroke="black" stroke-width="1"/>
    <line x1="80" y1="340" x2="350" y2="340" stroke="black" stroke-width="1"/>
</svg>
